<?xml version="1.0" encoding="UTF-8"?>
<svg id="Layer_1" data-name="Layer 1" xmlns="http://www.w3.org/2000/svg" viewBox="0 0 25 25">
  <defs>
    <style>
      .cls-1 {
        fill: #131112;
        opacity: .21;
      }

      .cls-2 {
        fill: purple;
      }

      .cls-3 {
        fill: #ffce1b;
      }
    </style>
  </defs>
  <path class="cls-3" d="M18.38,7.04s-.01-.01-.02-.02c0,0,0,0,0,0,0,0-.02-.01-.03-.01,0,0,0,0,0,0,0,0,0,0-.01,0,0,0,0,0-.01,0,0,0,0,0,0,0,0,0-.01,0-.02,0,0,0-.01,0-.02,0-.01,0-.02.01-.03.02,0,0,0,0,0,0-.01.01-.02.03-.03.05-.53,1.98-1.75,3.74-3.42,4.94,0,0,0,0-.01.01,0,0-.01,0-.01.02,0,0,0,.02,0,.02,0,0,0,0,0,.01l-1.11,5.78s0,.06.02.09.05.04.08.04h2.51c.05,0,.09-.04.1-.09l2.07-10.78s0-.06-.03-.09Z"/>
  <path class="cls-3" d="M11.14,13.69s0,0,0,0c0-.04-.04-.08-.08-.09-.02,0-.04,0-.06,0-.49.08-.99.12-1.47.12-.32,0-.64-.02-.97-.05,0,0-.01,0-.02,0-.06-.01-.11.03-.12.08l-.79,4.12s0,.06.02.09c.02.02.05.04.08.04h2.51c.05,0,.09-.04.1-.09l.8-4.18s0,0,0-.01h0s0-.01,0-.02c0,0,0-.01,0-.02Z"/>
  <path class="cls-3" d="M12.38,7.04s-.05-.04-.08-.04h-2.51c-.05,0-.09.03-.1.08l-.77,3.62s0,0,0,0c0,0,0,0,0,0,0,0,0,0,0,.01,0,0,0,.01,0,.02,0,0,0,.01,0,.02,0,0,0,.01,0,.02,0,0,0,0,.01.01,0,0,0,0,.02.01,0,0,.01,0,.02,0,0,0,0,0,.01,0,0,0,0,0,0,0,0,0,0,0,0,0,.21.02.39.02.57.02.69,0,1.38-.09,2.04-.28,0,0,0,0,.01,0,0,0,.01,0,.02-.01,0,0,0,0,.01-.01,0,0,0,0,.01-.02,0,0,0-.01,0-.02,0,0,0,0,0-.01l.71-3.37s0-.06-.02-.08Z"/>
  <path class="cls-1" d="M18.41,7.13l-.04.21c-.35,1.85-1.61,4.39-3.82,5.69l.1-.53.09-.45,3.67-4.93Z"/>
  <path class="cls-1" d="M11.11,13.89h0s0-.02,0-.03c0,0,0-.02,0-.03,0,0,0,0,0,0,0-.07-.04-.13-.08-.14-.02,0-.04,0-.06.01-.49.12-.99.19-1.47.19-.32,0-.64-.03-.97-.08,0,0-.01,0-.02-.01-.06-.02-.11.04-.12.13l-.08.36c.53.16,1.51.35,2.74-.07l.07-.31s0-.01,0-.02Z"/>
  <path class="cls-2" d="M18.4,7.1s0-.01,0-.02c0,0,0-.01,0-.02,0,0,0-.01-.01-.02,0,0,0-.01-.01-.02,0,0-.01,0-.02-.01,0,0-.01,0-.02,0,0,0,0,0,0,0,0,0,0,0-.01,0,0,0,0,0-.01,0h-2.49c-.05,0-.1.04-.1.09,0,0-.01.01-.01.02-.72,1.86-2.29,3.33-4.19,3.93-.64.2-1.3.3-1.97.3-.17,0-.35,0-.55-.02,0,0,0,0,0,0-.61-.05-1.21-.19-1.78-.4,0,0,0,0,0,0,0,0,0,0,0,0,0,0,0,0-.01,0,0,0-.01,0-.02,0,0,0-.01,0-.02,0,0,0-.01,0-.02,0,0,0-.01,0-.02.01,0,0-.01,0-.01.01,0,0,0,.01-.01.02,0,0,0,0,0,.01,0,0,0,0,0,0,0,0,0,0,0,0l-.45,2.36s0,0,0,.01c0,0,0,.01,0,.02,0,0,0,.01,0,.02,0,0,0,.01,0,.02,0,0,0,.01.01.02,0,0,0,.01.01.01,0,0,.01,0,.02.01,0,0,0,0,.01,0,.59.19,1.21.33,1.83.4,0,0,0,0,0,0,.35.04.69.06,1.02.06.5,0,1.02-.04,1.53-.13,1.38-.23,2.71-.79,3.84-1.61,1.71-1.24,2.96-3.03,3.5-5.06,0,0,0,0,0-.01,0,0,0,0,0-.01,0,0,0,0,0,0Z"/>
</svg>